PathFileType	4	(X/Y/Z)	Walk1.trc
DataRate	CameraRate	NumFrames	NumMarkers	Units	OrigDataRate	OrigDataStartFrame	OrigNumFrames
200.000000	200.000000	4	61	mm	200.000000	296	465
Frame#	Times		LFHD		RFHD		CLAV		STRN		LASI		RASI		RACR1		RUA1		RWRR		RWRU		RCAR		LACR1		LUA1		LFA1		LWRU		LCAR		RTH3		RTH2		RTB1		RTB4		LTH1		LTH3		LTH2		LTH4		LLFC		LMFC		LTB1		LTB3		LTB2		LTB4		LLMAL		LMMAL		LMT1		LMT5		LToe		LBHD		RBHD		RTB3		RFA1		RMFC		RMT5		RLFC		RToe		LElbowM		RTH4		RTB2		RLMAL		RMMAL		RMT1		LWRR		RElbow		LPSI		RPSI		RTH1		C7		LCAL		T10		RBack		RElbowM		RCAL		LElbow
			X1	Y1	Z1	X2	Y2	Z2	X3	Y3	Z3	X4	Y4	Z4	X5	Y5	Z5	X6	Y6	Z6	X7	Y7	Z7	X8	Y8	Z8	X9	Y9	Z9	X10	Y10	Z10	X11	Y11	Z11	X12	Y12	Z12	X13	Y13	Z13	X14	Y14	Z14	X15	Y15	Z15	X16	Y16	Z16	X17	Y17	Z17	X18	Y18	Z18	X19	Y19	Z19	X20	Y20	Z20	X21	Y21	Z21	X22	Y22	Z22	X23	Y23	Z23	X24	Y24	Z24	X25	Y25	Z25	X26	Y26	Z26	X27	Y27	Z27	X28	Y28	Z28	X29	Y29	Z29	X30	Y30	Z30	X31	Y31	Z31	X32	Y32	Z32	X33	Y33	Z33	X34	Y34	Z34	X35	Y35	Z35	X36	Y36	Z36	X37	Y37	Z37	X38	Y38	Z38	X39	Y39	Z39	X40	Y40	Z40	X41	Y41	Z41	X42	Y42	Z42	X43	Y43	Z43	X44	Y44	Z44	X45	Y45	Z45	X46	Y46	Z46	X47	Y47	Z47	X48	Y48	Z48	X49	Y49	Z49	X50	Y50	Z50	X51	Y51	Z51	X52	Y52	Z52	X53	Y53	Z53	X54	Y54	Z54	X55	Y55	Z55	X56	Y56	Z56	X57	Y57	Z57	X58	Y58	Z58	X59	Y59	Z59	X60	Y60	Z60	X61	Y61	Z61

296	1.48	454.72	1526.4	-90.93	447.34	1530.1	8.205	353.07	1283.8	-41.098	373.07	1151.5	-35.516	322.15	881.95	-151.2	351.85	896.64	99.021	268.82	1326.6	120.74	235.95	1163.1	182.13	161.21	766.11	276.73	222.87	753.62	247.91	187.28	699.35	300.24	283.51	1344.9	-190.79	307.62	1178.4	-261.1	458.94	948.28	-306.52	574.34	919.32	-268.75	618.73	862.39	-299.59	398.44	582.54	142.06	416.12	686.58	132.57	497.45	350.04	75.692	509.23	264.32	66.815	229.65	726.79	-209.94	180.47	564.14	-186.28	258.78	632.51	-182.79	204.11	644.66	-200.01	137.83	431.08	-172.36	121.78	417.76	-40.204	98.33	321.84	-113.28	-21.437	200.75	-106.16	21.327	274.35	-168.2	35.614	262.58	-110.23	-135.3	149.34	-145.59	-110.05	151.77	-67.492	-64.602	32.87	-62.902	-89.388	36.926	-143.45	-15.934	21.336	-90.001	301.16	1512.2	-125.62	294.53	1521.9	19.798	519.84	180.04	54.929	198.86	881.73	262.3	400.58	421.09	-9.4182	592.02	31.121	77.522	446.83	445.73	109.79	673.87	59.09	32.958	336.82	1026.8	-300.13	370.64	660.23	162.25	461.95	254.07	104.1	488.08	60.067	59.317	503.78	86.926	-17.193	628.19	51.53	-0.62315	537.26	863.29	-285.98	194.69	1006.1	220.67	159.13	938.39	-53.346	172.17	936.97	43.768	342.82	740.28	183.73	249.42	1395.3	-46.901	-190.23	164.25	-107.48	165.28	1183.2	-35.676	160.28	1269.2	22.146	175.2	996.82	146.14	441.88	32.856	15.987	319.96	994.13	-232.58
297	1.485	462.46	1526.9	-90.476	455.38	1530.8	8.6724	361.58	1283.9	-40.001	381.69	1151.6	-34.327	330.62	881.24	-150.25	359.87	897.39	99.797	277.54	1326.5	121.93	244.99	1162.8	183.19	170.09	765.88	277.49	231.58	753.31	248.41	196.12	699.05	300.82	291.82	1344.8	-189.74	314.58	1178	-260.02	464.67	946.88	-305.71	579.94	917.08	-268.3	623.77	859.87	-299.34	406.94	583.69	142.5	424.4	687.79	133.66	504.27	349.62	75.232	514.56	263.69	66.329	239.36	725.59	-208.8	192.11	562.34	-185.66	269.52	631.6	-181.73	214.79	643.18	-199.07	151.06	428.7	-172.17	134.66	414.91	-40.109	108.91	320.42	-113.3	-13.598	202.16	-106.61	30.898	274.88	-168.43	44.859	262.63	-110.51	-128.6	153.49	-146.3	-103.39	155.14	-68.164	-62.905	34.452	-63.276	-86.784	39.406	-143.77	-15.471	20.985	-90.033	308.85	1512.1	-124.66	302.64	1522.2	20.757	523.6	179.22	54.408	207.85	881.45	263.06	410.19	423.01	-9.7763	592.92	29.321	77.348	455.78	447.14	109.79	675.55	54.868	31.841	343.09	1026.3	-298.96	378.86	661.22	162.91	467.74	254.25	104.34	490.01	59.787	59.506	504.9	86.277	-17.293	629.29	48.391	-1.4506	542.39	861.29	-285.36	203.69	1005.9	221.72	167.34	938.24	-53.153	180.25	937.31	44.008	350.77	741.08	184.69	257.8	1395.3	-45.627	-182.59	170.8	-108.66	173.71	1183.3	-34.738	168.81	1269.2	23.415	183.94	996.72	147.12	442.46	33.58	16.222	326.32	993.84	-231.47
298	1.49	470.21	1527.4	-90.014	463.43	1531.5	9.1466	370.07	1284.1	-38.921	390.25	1151.8	-33.131	339.04	880.62	-149.28	367.79	898.22	100.55	286.27	1326.5	123.1	254.07	1162.7	184.24	179.18	765.69	278.21	240.5	753.07	248.87	205.22	698.79	301.35	300.14	1344.8	-188.7	321.49	1177.7	-258.94	470.2	945.43	-304.89	585.31	914.69	-267.87	628.51	857.16	-299.14	415.15	584.76	143.05	432.47	688.91	134.94	510.87	349.17	74.822	519.67	263.08	65.898	249.14	724.38	-207.66	204.01	560.5	-185.03	280.43	630.73	-180.64	225.64	641.67	-198.13	164.69	426.26	-171.96	147.93	412	-39.992	119.9	319.02	-113.22	-5.3196	203.68	-106.96	40.937	275.42	-168.59	54.521	262.74	-110.69	-121.39	157.76	-146.94	-96.282	158.68	-68.761	-60.722	36.311	-63.716	-83.716	42.212	-144.12	-14.645	20.628	-90.126	316.54	1512	-123.68	310.75	1522.5	21.724	527.13	178.43	53.952	216.98	881.24	263.8	419.66	424.94	-10.098	593.68	27.799	77.295	464.39	448.46	109.91	677.01	51.048	30.845	349.24	1025.8	-297.76	386.81	662.14	163.68	473.35	254.42	104.68	491.74	59.57	59.813	505.75	85.712	-17.271	630.2	45.611	-2.1748	547.24	859.17	-284.75	212.75	1005.8	222.75	175.45	938.11	-53.008	188.25	937.68	44.218	358.46	741.82	185.74	266.19	1395.4	-44.371	-174.42	177.5	-109.78	182.08	1183.5	-33.832	177.32	1269.4	24.678	192.74	996.68	148.08	442.95	34.251	16.492	332.55	993.62	-230.33
299	1.495	477.97	1527.9	-89.542	471.49	1532.3	9.6292	378.53	1284.3	-37.864	398.75	1152	-31.941	347.42	880.09	-148.32	375.64	899.12	101.29	295.01	1326.5	124.24	263.18	1162.6	185.26	188.48	765.54	278.9	249.63	752.91	249.27	214.56	698.59	301.83	308.47	1344.9	-187.67	328.36	1177.5	-257.84	475.53	943.94	-304.06	590.45	912.16	-267.47	632.94	854.28	-298.99	423.03	585.74	143.7	440.34	689.9	136.42	517.22	348.71	74.486	524.53	262.45	65.538	259	723.17	-206.53	216.15	558.65	-184.39	291.49	629.9	-179.53	236.64	640.15	-197.17	178.7	423.8	-171.71	161.56	409.07	-39.848	131.26	317.67	-113.03	3.3985	205.32	-107.19	51.436	275.99	-168.65	64.592	262.93	-110.76	-113.63	162.14	-147.51	-88.711	162.4	-69.267	-57.976	38.443	-64.22	-80.124	45.341	-144.49	-13.38	20.289	-90.296	324.25	1512	-122.71	318.87	1522.8	22.693	530.43	177.66	53.569	226.24	881.08	264.5	428.93	426.85	-10.386	594.32	26.538	77.356	472.61	449.64	110.15	678.25	47.639	29.992	355.27	1025.4	-296.53	394.48	662.97	164.53	478.74	254.58	105.1	493.28	59.405	60.199	506.37	85.237	-17.15	630.94	43.196	-2.7822	551.81	856.93	-284.13	221.86	1005.7	223.77	183.47	938	-52.904	196.16	938.1	44.405	365.92	742.5	186.87	274.58	1395.6	-43.138	-165.72	184.29	-110.8	190.39	1183.8	-32.956	185.81	1269.6	25.934	201.59	996.72	149	443.35	34.859	16.781	338.64	993.48	-229.15
